<svg version="1.1" viewBox="0 0 14 10" xml:space="preserve" xmlns="http://www.w3.org/2000/svg"><defs><clipPath id="clipPath100"><path d="m0 7.5h10.5v-7.5h-10.5z"/></clipPath></defs><g transform="matrix(1.3333 0 0 -1.3333 0 10)"><g clip-path="url(#clipPath100)"><g transform="translate(7.3242,3.4336)"><path d="m0 0c0.117 0.066 0.176 0.172 0.176 0.316 0 0.145-0.059 0.25-0.176 0.317l-3 1.875c-0.121 0.078-0.248 0.082-0.381 0.011-0.129-0.07-0.193-0.179-0.193-0.328v-3.75c0-0.148 0.064-0.257 0.193-0.328 0.063-0.031 0.123-0.047 0.182-0.047 0.078 0 0.144 0.02 0.199 0.059zm3.17 1.195c4e-3 -0.211 6e-3 -0.504 6e-3 -0.879s-2e-3 -0.668-6e-3 -0.878c-4e-3 -0.211-0.021-0.477-0.05-0.799-0.029-0.323-0.073-0.612-0.132-0.866-0.062-0.285-0.197-0.525-0.404-0.72-0.207-0.196-0.449-0.309-0.727-0.34-0.867-0.098-2.177-0.147-3.931-0.147s-3.065 0.049-3.932 0.147c-0.277 0.031-0.52 0.144-0.729 0.34-0.209 0.195-0.345 0.435-0.408 0.72-0.054 0.254-0.096 0.543-0.126 0.866-0.029 0.322-0.045 0.588-0.049 0.799-4e-3 0.21-6e-3 0.503-6e-3 0.878s2e-3 0.668 6e-3 0.879 0.02 0.479 0.049 0.801c0.03 0.322 0.074 0.609 0.132 0.863 0.063 0.285 0.198 0.526 0.405 0.721s0.449 0.309 0.726 0.34c0.867 0.098 2.178 0.146 3.932 0.146s3.064-0.048 3.931-0.146c0.278-0.031 0.521-0.145 0.73-0.34s0.345-0.436 0.407-0.721c0.055-0.254 0.097-0.541 0.126-0.863s0.046-0.59 0.05-0.801"/></g></g></g></svg>
