<svg width="11.614" height="11.614" version="1.1" viewBox="0 0 11.614253 11.614093" xml:space="preserve" xmlns="http://www.w3.org/2000/svg"><defs><clipPath id="clipPath144"><path d="M 0,8.711 H 8.711 V 0 H 0 Z"/></clipPath></defs><g transform="matrix(1.3333 0 0 -1.3333 0 11.614)"><g clip-path="url(#clipPath144)"><g transform="translate(6.2344 .5)"><path d="m0 0h-3.758c-1.087 0-1.976 0.889-1.976 1.976v3.758c0 1.087 0.889 1.977 1.976 1.977h3.758c1.087 0 1.976-0.89 1.976-1.977v-3.758c0-1.087-0.889-1.976-1.976-1.976z" stroke-miterlimit="10"/></g><g transform="translate(4.3554,2.7334)"><path d="m0 0c-0.892 0-1.622 0.73-1.622 1.622s0.73 1.622 1.622 1.622 1.622-0.73 1.622-1.622-0.73-1.622-1.622-1.622z" stroke-miterlimit="10"/></g><g transform="translate(6.7125,6.5955)"><path d="m0 0c0-0.042-0.034-0.076-0.076-0.076-0.043 0-0.077 0.034-0.077 0.076s0.034 0.077 0.077 0.077c0.042 0 0.076-0.035 0.076-0.077z" stroke-miterlimit="10"/></g></g></g></svg>
