<svg width="12.313" height="10" version="1.1" viewBox="0 0 12.31252 9.9999733" xml:space="preserve" xmlns="http://www.w3.org/2000/svg"><defs><clipPath id="clipPath26"><path d="m0 7.5h9.234v-7.5h-9.234z"/></clipPath></defs><g transform="matrix(1.3333 0 0 -1.3333 0 10)"><g clip-path="url(#clipPath26)"><g transform="translate(8.1445,6.3164)"><path d="m0 0c0.363 0.039 0.727 0.137 1.09 0.293-0.262-0.383-0.578-0.709-0.949-0.979 4e-3 -0.054 5e-3 -0.136 5e-3 -0.246 0-0.507-0.074-1.013-0.222-1.519-0.149-0.506-0.374-0.992-0.677-1.457s-0.663-0.875-1.081-1.233c-0.418-0.357-0.922-0.642-1.512-0.855s-1.22-0.32-1.892-0.32c-1.059 0-2.028 0.283-2.907 0.849 0.137-0.016 0.29-0.023 0.458-0.023 0.878 0 1.662 0.269 2.349 0.808-0.41 8e-3 -0.777 0.135-1.101 0.379-0.325 0.244-0.547 0.555-0.668 0.934 0.128-0.02 0.248-0.03 0.357-0.03 0.168 0 0.334 0.022 0.498 0.065-0.437 0.09-0.8 0.309-1.087 0.654-0.287 0.346-0.431 0.746-0.431 1.203v0.024c0.266-0.149 0.551-0.229 0.856-0.24-0.258 0.172-0.463 0.396-0.615 0.673-0.153 0.278-0.229 0.579-0.229 0.903 0 0.343 0.086 0.662 0.258 0.955 0.473-0.582 1.048-1.047 1.726-1.397 0.677-0.349 1.403-0.545 2.176-0.584-0.031 0.149-0.047 0.293-0.047 0.434 0 0.523 0.185 0.971 0.554 1.34s0.816 0.553 1.339 0.553c0.547 0 1.008-0.2 1.383-0.598 0.426 0.082 0.826 0.234 1.201 0.457-0.145-0.449-0.422-0.797-0.832-1.043"/></g></g></g></svg>
