<svg width="6" height="12.875" version="1.1" viewBox="0 0 6 12.875067" xml:space="preserve" xmlns="http://www.w3.org/2000/svg"><defs><clipPath id="clipPath122"><path d="m0 9.656h4.5v-9.656h-4.5z"/></clipPath></defs><g transform="matrix(1.3333 0 0 -1.3333 0 12.875)"><g clip-path="url(#clipPath122)"><g transform="translate(2.9942,6.4922)"><path d="m0 0h1.506l-0.176-1.664h-1.33v-4.828h-1.998v4.828h-0.996v1.664h0.996v1.002c0 0.711 0.168 1.25 0.504 1.615s0.889 0.547 1.658 0.547h1.33v-1.664h-0.832c-0.152 0-0.274-0.012-0.366-0.037-0.092-0.026-0.158-0.072-0.199-0.139-0.041-0.066-0.068-0.133-0.079-0.201-0.012-0.068-0.018-0.166-0.018-0.291z"/></g></g></g></svg>
