<svg width="32.009" height="32" version="1.1" viewBox="0 0 32.009201 32" xml:space="preserve" xmlns="http://www.w3.org/2000/svg"><defs><clipPath id="clipPath8379"><path d="m0 24h24.007v-24h-24.007z"/></clipPath></defs><g transform="matrix(1.3333 0 0 -1.3333 0 32)" stroke="#ebb346"><g transform="translate(11.971 20.5)"><path d="m0 0 1-2h2l-1.617-1.235 0.617-2.265-2 1.5-2-1.5 0.795 2.265-1.795 1.235h2z" fill="none" stroke="#ebb346" stroke-linejoin="round" stroke-miterlimit="10"/></g><g clip-path="url(#clipPath8379)" stroke="#ebb346"><g transform="translate(5.1286,13.5)"><path d="m0 0c-5 0-4.622 6.619-4.622 8h2.535" fill="none" stroke="#ebb346" stroke-linecap="round" stroke-linejoin="round" stroke-miterlimit="10"/></g><g transform="translate(18.85 13.5)"><path d="m0 0c5 0 4.651 6.619 4.651 8h-2.563" fill="none" stroke="#ebb346" stroke-linecap="round" stroke-linejoin="round" stroke-miterlimit="10"/></g><g transform="translate(21.006 23.5)"><path d="m0 0h-18c0-15.434 7.965-11.054 7.965-16.5-0.063-3.5-1.703-4.5-4.465-4.5v-2h11v2c-2.762 0-4.535 1-4.535 4.5 0 5.453 8.035 1.13 8.035 16.5z" fill="none" stroke="#ebb346" stroke-linecap="round" stroke-linejoin="round" stroke-miterlimit="10"/></g></g></g></svg>
