<svg width="30.667" height="32" version="1.1" viewBox="0 0 30.666668 32" xml:space="preserve" xmlns="http://www.w3.org/2000/svg"><defs><clipPath id="clipPath6486"><path d="m0 24h23v-24h-23z"/></clipPath></defs><g transform="matrix(1.3333 0 0 -1.3333 0 32)"><g clip-path="url(#clipPath6486)"><path d="m4.5 0.5h-4v8h4z" fill="none" stroke="#c2424f" stroke-linejoin="round" stroke-miterlimit="10"/><g transform="translate(4.5,1.5)"><path d="m0 0h17c0 1.5-3.5 3-7.5 3h-7" fill="none" stroke="#c2424f" stroke-linecap="round" stroke-linejoin="round" stroke-miterlimit="10"/></g><g transform="translate(4.5,7.5)"><path d="m0 0h3.5c2.352 0 3.5-2.5 4-3" fill="none" stroke="#c2424f" stroke-linejoin="round" stroke-miterlimit="10"/></g><g transform="translate(2.5,3)"><path d="m0 0c-0.276 0-0.5-0.224-0.5-0.5s0.224-0.5 0.5-0.5 0.5 0.224 0.5 0.5-0.224 0.5-0.5 0.5" fill="#c2424f"/></g><g transform="translate(2.5,13)"><path d="m0 0v8.5c0 1.1 0.9 2 2 2h16c1.1 0 2-0.9 2-2v-12c0-1.1-0.9-2-2-2h-3" fill="none" stroke="#c2424f" stroke-linecap="round" stroke-linejoin="round" stroke-miterlimit="10"/></g><g transform="translate(2.5,19.5)"><path d="m0 0h20" fill="none" stroke="#c2424f" stroke-linecap="round" stroke-linejoin="round" stroke-miterlimit="10"/></g><g transform="translate(5.5,22)"><path d="m0 0c-0.276 0-0.5-0.224-0.5-0.5s0.224-0.5 0.5-0.5 0.5 0.224 0.5 0.5-0.224 0.5-0.5 0.5" fill="#c2424f"/></g><g transform="translate(7.5,22)"><path d="m0 0c-0.276 0-0.5-0.224-0.5-0.5s0.224-0.5 0.5-0.5 0.5 0.224 0.5 0.5-0.224 0.5-0.5 0.5" fill="#c2424f"/></g><g transform="translate(9.5,22)"><path d="m0 0c-0.276 0-0.5-0.224-0.5-0.5s0.224-0.5 0.5-0.5 0.5 0.224 0.5 0.5-0.224 0.5-0.5 0.5" fill="#c2424f"/></g></g></g></svg>
