<svg version="1.1" viewBox="0 0 32 32" xml:space="preserve" xmlns="http://www.w3.org/2000/svg"><defs><clipPath id="clipPath8333"><path d="m0 24h24v-24h-24z"/></clipPath></defs><g transform="matrix(1.3333 0 0 -1.3333 0 32)"><g clip-path="url(#clipPath8333)"><g transform="translate(.5 19.5)"><path d="m0 0h20" fill="none" stroke="#24ffc3" stroke-linecap="round" stroke-linejoin="round" stroke-miterlimit="10"/></g><g transform="translate(3.5,22)"><path d="m0 0c-0.276 0-0.5-0.224-0.5-0.5s0.224-0.5 0.5-0.5 0.5 0.224 0.5 0.5-0.224 0.5-0.5 0.5" fill="#24ffc3"/></g><g transform="translate(5.5,22)"><path d="m0 0c-0.276 0-0.5-0.224-0.5-0.5s0.224-0.5 0.5-0.5 0.5 0.224 0.5 0.5-0.224 0.5-0.5 0.5" fill="#24ffc3"/></g><g transform="translate(7.5,22)"><path d="m0 0c-0.276 0-0.5-0.224-0.5-0.5s0.224-0.5 0.5-0.5 0.5 0.224 0.5 0.5-0.224 0.5-0.5 0.5" fill="#24ffc3"/></g><g transform="translate(9.5,7.5)"><path d="m0 0h-7c-1.104 0-2 0.896-2 2v12c0 1.105 0.896 2 2 2h16c1.106 0 2-0.895 2-2v-8" fill="none" stroke="#24ffc3" stroke-linecap="round" stroke-linejoin="round" stroke-miterlimit="10"/></g><g transform="translate(18.008 11.5)"><path d="m0 0 1.992-4h3.5l-3-2.5 1.5-4.5-4 2.747-4-2.747 1.5 4.5-3 2.5h3.5z" fill="none" stroke="#24ffc3" stroke-linejoin="round" stroke-miterlimit="10"/></g></g></g></svg>
