<svg width="34.303" height="28.395" version="1.1" viewBox="0 0 34.302799 28.394533" xml:space="preserve" xmlns="http://www.w3.org/2000/svg"><defs><clipPath id="clipPath26"><path d="M 0,21.296 H 25.727 V 0 H 0 Z"/></clipPath></defs><g transform="matrix(1.3333 0 0 -1.3333 0 28.395)"><g clip-path="url(#clipPath26)"><g transform="translate(25.727 10.688)"><path d="m0 0c0 0.163-0.034 0.318-0.09 0.463-3e-3 6e-3 -3e-3 0.013-7e-3 0.019-0.064 0.157-0.157 0.298-0.275 0.415l-9.338 9.338c-0.497 0.496-1.3 0.496-1.796 0s-0.496-1.3 0-1.795l7.171-7.171h-20.123c-0.7 0-1.269-0.569-1.269-1.269 0-0.701 0.569-1.271 1.269-1.271h20.123l-7.252-7.25c-0.495-0.497-0.495-1.299 0-1.795 0.249-0.249 0.574-0.373 0.899-0.373s0.649 0.124 0.898 0.373l9.418 9.418c0.118 0.117 0.211 0.258 0.275 0.415 4e-3 7e-3 4e-3 0.013 7e-3 0.02 0.056 0.144 0.09 0.299 0.09 0.463"/></g></g></g></svg>
