<?xml version="1.0" encoding="UTF-8" standalone="no"?>
<svg
   xmlns:dc="http://purl.org/dc/elements/1.1/"
   xmlns:cc="http://creativecommons.org/ns#"
   xmlns:rdf="http://www.w3.org/1999/02/22-rdf-syntax-ns#"
   xmlns:svg="http://www.w3.org/2000/svg"
   xmlns="http://www.w3.org/2000/svg"
   viewBox="0 0 11.614253 11.614093"
   height="11.614093"
   width="11.614253"
   xml:space="preserve"
   id="svg5102"
   version="1.1"><metadata
     id="metadata5108"><rdf:RDF><cc:Work
         rdf:about=""><dc:format>image/svg+xml</dc:format><dc:type
           rdf:resource="http://purl.org/dc/dcmitype/StillImage" /><dc:title></dc:title></cc:Work></rdf:RDF></metadata><defs
     id="defs5106"><clipPath
       id="clipPath5118"
       clipPathUnits="userSpaceOnUse"><path
         id="path5116"
         d="M 0,8.711 H 8.711 V 0 H 0 Z" /></clipPath></defs><g
     transform="matrix(1.3333333,0,0,-1.3333333,0,11.614093)"
     id="g5110"><g
       id="g5112"><g
         clip-path="url(#clipPath5118)"
         id="g5114"><g
           transform="translate(6.2344,0.5)"
           id="g5120"><path
             id="path5122"
             style="fill:none;stroke:#000000;stroke-width:1;stroke-linecap:butt;stroke-linejoin:miter;stroke-miterlimit:10;stroke-dasharray:none;stroke-opacity:1"
             d="m 0,0 h -3.758 c -1.087,0 -1.976,0.889 -1.976,1.976 v 3.758 c 0,1.087 0.889,1.977 1.976,1.977 H 0 c 1.087,0 1.976,-0.89 1.976,-1.977 V 1.976 C 1.976,0.889 1.087,0 0,0 Z" /></g><g
           transform="translate(4.3554,2.7334)"
           id="g5124"><path
             id="path5126"
             style="fill:none;stroke:#000000;stroke-width:1;stroke-linecap:butt;stroke-linejoin:miter;stroke-miterlimit:10;stroke-dasharray:none;stroke-opacity:1"
             d="m 0,0 v 0 c -0.892,0 -1.622,0.73 -1.622,1.622 0,0.892 0.73,1.622 1.622,1.622 v 0 c 0.892,0 1.622,-0.73 1.622,-1.622 C 1.622,0.73 0.892,0 0,0 Z" /></g><g
           transform="translate(6.7125,6.5955)"
           id="g5128"><path
             id="path5130"
             style="fill:none;stroke:#000000;stroke-width:1;stroke-linecap:butt;stroke-linejoin:miter;stroke-miterlimit:10;stroke-dasharray:none;stroke-opacity:1"
             d="m 0,0 c 0,-0.042 -0.034,-0.076 -0.076,-0.076 -0.043,0 -0.077,0.034 -0.077,0.076 0,0.042 0.034,0.077 0.077,0.077 C -0.034,0.077 0,0.042 0,0 Z" /></g></g></g></g></svg>