<svg width="82.681" height="82.681" version="1.1" viewBox="0 0 82.681068 82.680931" xml:space="preserve" xmlns="http://www.w3.org/2000/svg"><defs><clipPath id="clipPath8952"><path d="M 0,62.011 H 62.011 V 0 H 0 Z"/></clipPath></defs><g transform="matrix(1.3333 0 0 -1.3333 0 82.681)"><g clip-path="url(#clipPath8952)"><g transform="translate(31.006 3)"><path d="m0 0c-15.442 0-28.006 12.563-28.006 28.005s12.564 28.006 28.006 28.006 28.005-12.564 28.005-28.006-12.563-28.005-28.005-28.005m0 59.011c-17.097 0-31.006-13.909-31.006-31.006 0-17.096 13.909-31.005 31.006-31.005 17.096 0 31.005 13.909 31.005 31.005 0 17.097-13.909 31.006-31.005 31.006" fill="#3bd1bb"/></g><g transform="translate(24.764 21.724)"><path d="m0 0v18.504l16.018-9.256zm18.314 11.382c-0.045 0.034-0.092 0.064-0.141 0.093l-17.203 9.933c-0.56 0.322-1.08 0.48-1.591 0.48-1.154 0-2.338-0.871-2.379-2.85v-19.506c0.046-1.973 1.257-2.857 2.436-2.857 0.541 0 1.099 0.171 1.71 0.522l16.457 9.502c1.192 0.688 1.824 1.521 1.877 2.475 0.028 0.482-0.087 1.412-1.166 2.208" fill="#3bd1bb"/></g></g></g></svg>
