<?xml version="1.0" encoding="UTF-8" standalone="no"?>
<svg
   xmlns:dc="http://purl.org/dc/elements/1.1/"
   xmlns:cc="http://creativecommons.org/ns#"
   xmlns:rdf="http://www.w3.org/1999/02/22-rdf-syntax-ns#"
   xmlns:svg="http://www.w3.org/2000/svg"
   xmlns="http://www.w3.org/2000/svg"
   viewBox="0 0 14 10"
   height="10"
   width="14"
   xml:space="preserve"
   id="svg4507"
   version="1.1"><metadata
     id="metadata4513"><rdf:RDF><cc:Work
         rdf:about=""><dc:format>image/svg+xml</dc:format><dc:type
           rdf:resource="http://purl.org/dc/dcmitype/StillImage" /><dc:title></dc:title></cc:Work></rdf:RDF></metadata><defs
     id="defs4511"><clipPath
       id="clipPath4523"
       clipPathUnits="userSpaceOnUse"><path
         id="path4521"
         d="M 0,7.5 H 10.5 V 0 H 0 Z" /></clipPath></defs><g
     transform="matrix(1.3333333,0,0,-1.3333333,0,10)"
     id="g4515"><g
       id="g4517"><g
         clip-path="url(#clipPath4523)"
         id="g4519"><g
           transform="translate(7.3242,3.4336)"
           id="g4525"><path
             id="path4527"
             style="fill:#000000;fill-opacity:1;fill-rule:nonzero;stroke:none"
             d="M 0,0 C 0.117,0.066 0.176,0.172 0.176,0.316 0.176,0.461 0.117,0.566 0,0.633 L -3,2.508 C -3.121,2.586 -3.248,2.59 -3.381,2.519 -3.51,2.449 -3.574,2.34 -3.574,2.191 v -3.75 c 0,-0.148 0.064,-0.257 0.193,-0.328 0.063,-0.031 0.123,-0.047 0.182,-0.047 0.078,0 0.144,0.02 0.199,0.059 z M 3.17,1.195 C 3.174,0.984 3.176,0.691 3.176,0.316 3.176,-0.059 3.174,-0.352 3.17,-0.562 3.166,-0.773 3.149,-1.039 3.12,-1.361 3.091,-1.684 3.047,-1.973 2.988,-2.227 2.926,-2.512 2.791,-2.752 2.584,-2.947 2.377,-3.143 2.135,-3.256 1.857,-3.287 0.99,-3.385 -0.32,-3.434 -2.074,-3.434 c -1.754,0 -3.065,0.049 -3.932,0.147 -0.277,0.031 -0.52,0.144 -0.729,0.34 -0.209,0.195 -0.345,0.435 -0.408,0.72 -0.054,0.254 -0.096,0.543 -0.126,0.866 -0.029,0.322 -0.045,0.588 -0.049,0.799 -0.004,0.21 -0.006,0.503 -0.006,0.878 0,0.375 0.002,0.668 0.006,0.879 0.004,0.211 0.02,0.479 0.049,0.801 0.03,0.322 0.074,0.609 0.132,0.863 0.063,0.285 0.198,0.526 0.405,0.721 0.207,0.195 0.449,0.309 0.726,0.34 0.867,0.098 2.178,0.146 3.932,0.146 C -0.32,4.066 0.99,4.018 1.857,3.92 2.135,3.889 2.378,3.775 2.587,3.58 2.796,3.385 2.932,3.144 2.994,2.859 3.049,2.605 3.091,2.318 3.12,1.996 3.149,1.674 3.166,1.406 3.17,1.195" /></g></g></g></g></svg>