<?xml version="1.0" encoding="UTF-8" standalone="no"?>
<svg
   xmlns:dc="http://purl.org/dc/elements/1.1/"
   xmlns:cc="http://creativecommons.org/ns#"
   xmlns:rdf="http://www.w3.org/1999/02/22-rdf-syntax-ns#"
   xmlns:svg="http://www.w3.org/2000/svg"
   xmlns="http://www.w3.org/2000/svg"
   viewBox="0 0 12.31252 9.9999733"
   height="9.9999733"
   width="12.31252"
   xml:space="preserve"
   id="svg4485"
   version="1.1"><metadata
     id="metadata4491"><rdf:RDF><cc:Work
         rdf:about=""><dc:format>image/svg+xml</dc:format><dc:type
           rdf:resource="http://purl.org/dc/dcmitype/StillImage" /><dc:title></dc:title></cc:Work></rdf:RDF></metadata><defs
     id="defs4489"><clipPath
       id="clipPath4501"
       clipPathUnits="userSpaceOnUse"><path
         id="path4499"
         d="M 0,7.5 H 9.234 V 0 H 0 Z" /></clipPath></defs><g
     transform="matrix(1.3333333,0,0,-1.3333333,0,9.9999733)"
     id="g4493"><g
       id="g4495"><g
         clip-path="url(#clipPath4501)"
         id="g4497"><g
           transform="translate(8.1445,6.3164)"
           id="g4503"><path
             id="path4505"
             style="fill:#000000;fill-opacity:1;fill-rule:nonzero;stroke:none"
             d="M 0,0 C 0.363,0.039 0.727,0.137 1.09,0.293 0.828,-0.09 0.512,-0.416 0.141,-0.686 0.145,-0.74 0.146,-0.822 0.146,-0.932 c 0,-0.507 -0.074,-1.013 -0.222,-1.519 -0.149,-0.506 -0.374,-0.992 -0.677,-1.457 -0.303,-0.465 -0.663,-0.875 -1.081,-1.233 -0.418,-0.357 -0.922,-0.642 -1.512,-0.855 -0.59,-0.213 -1.22,-0.32 -1.892,-0.32 -1.059,0 -2.028,0.283 -2.907,0.849 0.137,-0.016 0.29,-0.023 0.458,-0.023 0.878,0 1.662,0.269 2.349,0.808 -0.41,0.008 -0.777,0.135 -1.101,0.379 -0.325,0.244 -0.547,0.555 -0.668,0.934 0.128,-0.02 0.248,-0.03 0.357,-0.03 0.168,0 0.334,0.022 0.498,0.065 -0.437,0.09 -0.8,0.309 -1.087,0.654 -0.287,0.346 -0.431,0.746 -0.431,1.203 v 0.024 c 0.266,-0.149 0.551,-0.229 0.856,-0.24 -0.258,0.172 -0.463,0.396 -0.615,0.673 -0.153,0.278 -0.229,0.579 -0.229,0.903 0,0.343 0.086,0.662 0.258,0.955 0.473,-0.582 1.048,-1.047 1.726,-1.397 0.677,-0.349 1.403,-0.545 2.176,-0.584 -0.031,0.149 -0.047,0.293 -0.047,0.434 0,0.523 0.185,0.971 0.554,1.34 0.369,0.369 0.816,0.553 1.339,0.553 0.547,0 1.008,-0.2 1.383,-0.598 C 0.057,0.668 0.457,0.82 0.832,1.043 0.687,0.594 0.41,0.246 0,0" /></g></g></g></g></svg>