<svg width="587.2" height="416.82" version="1.1" viewBox="0 0 587.2027 416.81866" xml:space="preserve" xmlns="http://www.w3.org/2000/svg"><defs><linearGradient id="grad" x1="0%" y1="0%" x2="0%" y2="100%"><stop offset="0%" stop-color="#55646e" class="stop-1"></stop><stop offset="100%" stop-color="#688595" class="stop-2"></stop>
    </linearGradient><clipPath id="clipPath58"><path d="m0 312.61h440.4v-312.61h-440.4z"/></clipPath></defs><g transform="matrix(1.3333 0 0 -1.3333 0 416.82)"><g transform="translate(104.59 312.61)"><path d="m0 0-79.394-67.952 19.78-23.979h29.993l-17.466 21.174 55.635 47.619h217.02l55.725-47.625-17.461-21.168h29.995l19.785 23.985-79.502 67.946z" /></g><g transform="translate(291.95 121.68)"><path d="m0 0-70.376-85.319-70.379 85.319h-29.997l100.38-121.68 100.37 121.68z" /></g><path d="m0 140.8h14.199v61.53h-14.199z"/><g clip-path="url(#clipPath58)"><g transform="translate(80.41 164.74)"><path d="m0 0-7.799 21.158c-0.555 1.855-1.021 3.62-1.39 5.292h-0.279c-0.186-1.488-0.652-3.342-1.39-5.569l-6.962-20.881zm22.271-23.945h-15.311l-4.458 13.365h-23.387l-4.453-13.365h-15.034l22.829 61.53h16.703z" /></g><g transform="translate(172.29 140.8)"><path d="m0 0h-13.363v36.474c0 3.897 0.181 8.532 0.555 13.921h-0.275c-0.559-3.714-1.301-7.24-2.227-10.58l-11.416-39.815h-11.694l-11.416 40.929c-0.556 2.226-1.302 5.38-2.227 9.466h-0.281c0-1.115 0.093-2.693 0.281-4.734 0.181-5.57 0.279-9.559 0.279-11.973v-33.688h-13.086v61.53h20.601l10.86-40.368c0.184-1.114 0.461-3.342 0.835-6.685 0 0.558 0.089 1.298 0.278 2.227 0 2.41 0.184 3.898 0.558 4.458l10.859 40.368h20.879z" /></g><g transform="translate(259.24 140.8)"><path d="m0 0h-13.924v24.781h-26.726v-24.781h-13.92v61.53h13.92v-24.778h26.726v24.778h13.924z" /></g><g transform="translate(315.12 140.8)"><path d="m0 0h-48.172v61.53h47.334v-11.413h-33.414v-13.365h31.188v-11.417h-31.188v-14.475h34.252z" /></g><g transform="translate(347.96 191.47)"><path d="m0 0h-11.971v-16.428h11.971c7.424 0 11.041 2.689 10.861 8.074 0.369 5.75-3.252 8.536-10.861 8.354m28.678-50.395h-17.541l-15.035 23.666h-8.073v-23.945h-13.922v61.53h28.12c15.037-0.373 22.832-6.498 23.388-18.375 0.182-10.209-4.826-16.336-15.035-18.374z" /></g><g transform="translate(425.09 171.15)"><path d="m0 0c-0.377 12.807-5.478 19.49-15.313 20.047-10.023-0.557-15.313-7.24-15.872-20.047 0.369-12.623 5.568-19.212 15.593-19.769 10.024 0.369 15.215 6.959 15.592 19.769m15.313 0c-1.117-19.866-11.233-30.349-30.35-31.463-19.305 1.114-29.513 11.597-30.623 31.463 0.926 20.603 11.136 31.274 30.623 32.017 18.933-1.111 29.047-11.789 30.35-32.017" /></g></g></g></svg>
