<svg width="440.4" height="312.61" version="1.1" viewBox="0 0 440.40199 312.61498" xml:space="preserve" xmlns="http://www.w3.org/2000/svg" xmlns:xlink="http://www.w3.org/1999/xlink"><defs><linearGradient id="linearGradient4535" x1="77.801" x2="78.09" y1="264.92" y2="577.17" gradientUnits="userSpaceOnUse"><stop stop-color="#55646e" offset="0"/><stop stop-color="#688595" offset="1"/></linearGradient><linearGradient id="linearGradient4543" x1="-5.127e-6" x2=".28874" y1=".85413" y2="313.1" gradientUnits="userSpaceOnUse"><stop stop-color="#55646e" offset="0"/><stop stop-color="#688595" offset="1"/></linearGradient></defs><polygon transform="translate(-77.801 -264.07)" points="407.96 287.21 463.68 334.83 446.22 356 476.22 356 496 332.02 416.5 264.07 182.39 264.07 102.99 332.02 122.77 356 152.77 356 135.3 334.82 190.94 287.21" fill="url(#linearGradient4535)"/><polygon transform="translate(-77.801 -264.07)" points="199 455 299.38 576.68 399.75 455 369.75 455 299.38 540.32 229 455" fill="url(#linearGradient4535)"/><g fill="url(#linearGradient4543)"><path d="m14.199 171.82h-14.199v-61.53h14.199z"/><path d="m102.68 171.82h-15.312l-4.458-13.365h-23.387l-4.453 13.365h-15.034l22.829-61.53h16.703zm-22.271-23.946-7.799-21.158c-0.555-1.854-1.021-3.62-1.391-5.292h-0.278c-0.187 1.488-0.652 3.342-1.391 5.569l-6.962 20.881z"/><path d="m172.29 171.82h-13.363v-36.474c0-3.897 0.182-8.532 0.556-13.922h-0.275c-0.559 3.715-1.301 7.24-2.228 10.58l-11.415 39.815h-11.694l-11.416-40.929c-0.556-2.227-1.302-5.38-2.228-9.467h-0.28c0 1.115 0.093 2.693 0.28 4.734 0.182 5.57 0.279 9.56 0.279 11.973v33.688h-13.086v-61.53h20.601l10.86 40.368c0.185 1.114 0.461 3.342 0.835 6.685 0-0.558 0.089-1.298 0.278-2.227 0-2.41 0.184-3.898 0.558-4.458l10.859-40.368h20.879z"/><path d="m259.24 171.82h-13.924v-24.781h-26.727v24.781h-13.92v-61.53h13.92v24.778h26.727v-24.778h13.924z"/><path d="m315.12 171.82h-48.172v-61.53h47.334v11.413h-33.414v13.365h31.188v11.417h-31.188v14.475h34.252z"/><path d="m376.64 171.54h-17.541l-15.035-23.666h-8.072v23.945h-13.922v-61.53h28.119c15.037 0.373 22.832 6.498 23.389 18.375 0.182 10.209-4.826 16.336-15.035 18.374zm-28.677-50.394h-11.971v16.428h11.971c7.424 0 11.041-2.688 10.861-8.074 0.369-5.751-3.252-8.536-10.861-8.354z"/><path d="m440.4 141.47c-1.116 19.866-11.232 30.349-30.35 31.463-19.305-1.114-29.513-11.597-30.623-31.463 0.926-20.603 11.136-31.274 30.623-32.017 18.933 1.111 29.047 11.79 30.35 32.017zm-15.312 0c-0.377-12.807-5.479-19.49-15.312-20.047-10.023 0.557-15.313 7.24-15.873 20.047 0.369 12.623 5.568 19.212 15.594 19.77 10.022-0.369 15.214-6.96 15.591-19.77z"/></g></svg>
