<?xml version="1.0" encoding="UTF-8" standalone="no"?>
<svg
   xmlns:dc="http://purl.org/dc/elements/1.1/"
   xmlns:cc="http://creativecommons.org/ns#"
   xmlns:rdf="http://www.w3.org/1999/02/22-rdf-syntax-ns#"
   xmlns:svg="http://www.w3.org/2000/svg"
   xmlns="http://www.w3.org/2000/svg"
   xmlns:xlink="http://www.w3.org/1999/xlink"
   xmlns:sodipodi="http://sodipodi.sourceforge.net/DTD/sodipodi-0.dtd"
   xmlns:inkscape="http://www.inkscape.org/namespaces/inkscape"
   width="440.4"
   height="312.61"
   version="1.1"
   viewBox="0 0 440.40199 312.61498"
   xml:space="preserve"
   id="svg4503"
   sodipodi:docname="logo_light.svg"
   inkscape:version="0.92.1 r15371"><metadata
     id="metadata4509"><rdf:RDF><cc:Work
         rdf:about=""><dc:format>image/svg+xml</dc:format><dc:type
           rdf:resource="http://purl.org/dc/dcmitype/StillImage" /><dc:title></dc:title></cc:Work></rdf:RDF></metadata><defs
     id="defs4507"><linearGradient
       inkscape:collect="always"
       id="linearGradient4589"><stop
         style="stop-color:#ffffff;stop-opacity:1"
         offset="0"
         id="stop4585" /><stop
         style="stop-color:#d8dce8;stop-opacity:1"
         offset="1"
         id="stop4587" /></linearGradient><linearGradient
       inkscape:collect="always"
       id="linearGradient4581"><stop
         style="stop-color:#ffffff;stop-opacity:1"
         offset="0"
         id="stop4577" /><stop
         style="stop-color:#d8dce8;stop-opacity:1"
         offset="1"
         id="stop4579" /></linearGradient><linearGradient
       inkscape:collect="always"
       id="linearGradient4573"><stop
         style="stop-color:#ffffff;stop-opacity:1"
         offset="0"
         id="stop4569" /><stop
         style="stop-color:#d8dce8;stop-opacity:1"
         offset="1"
         id="stop4571" /></linearGradient><linearGradient
       inkscape:collect="always"
       id="linearGradient4565"><stop
         style="stop-color:#ffffff;stop-opacity:1"
         offset="0"
         id="stop4561" /><stop
         style="stop-color:#d8dce8;stop-opacity:1"
         offset="1"
         id="stop4563" /></linearGradient><linearGradient
       inkscape:collect="always"
       id="linearGradient4557"><stop
         style="stop-color:#ffffff;stop-opacity:1"
         offset="0"
         id="stop4553" /><stop
         style="stop-color:#d8dce8;stop-opacity:1"
         offset="1"
         id="stop4555" /></linearGradient><linearGradient
       inkscape:collect="always"
       id="linearGradient4549"><stop
         style="stop-color:#ffffff;stop-opacity:1"
         offset="0"
         id="stop4545" /><stop
         style="stop-color:#d8dce8;stop-opacity:1"
         offset="1"
         id="stop4547" /></linearGradient><linearGradient
       inkscape:collect="always"
       id="linearGradient4541"><stop
         style="stop-color:#ffffff;stop-opacity:1"
         offset="0"
         id="stop4537" /><stop
         style="stop-color:#d8dce8;stop-opacity:1"
         offset="1"
         id="stop4539" /></linearGradient><linearGradient
       inkscape:collect="always"
       id="linearGradient4533"><stop
         style="stop-color:#ffffff;stop-opacity:1"
         offset="0"
         id="stop4529" /><stop
         style="stop-color:#d8dce8;stop-opacity:1"
         offset="1"
         id="stop4531" /></linearGradient><linearGradient
       inkscape:collect="always"
       id="linearGradient4523"><stop
         style="stop-color:#ffffff;stop-opacity:1"
         offset="0"
         id="stop4519" /><stop
         style="stop-color:#d8dce8;stop-opacity:1"
         offset="1"
         id="stop4521" /></linearGradient><linearGradient
       inkscape:collect="always"
       xlink:href="#linearGradient4533"
       id="linearGradient4535"
       x1="77.800995"
       y1="264.92413"
       x2="78.089737"
       y2="577.17303"
       gradientUnits="userSpaceOnUse" /><linearGradient
       inkscape:collect="always"
       xlink:href="#linearGradient4541"
       id="linearGradient4543"
       x1="-5.1269531e-006"
       y1="0.85413331"
       x2="0.2887356"
       y2="313.103"
       gradientUnits="userSpaceOnUse" /><linearGradient
       inkscape:collect="always"
       xlink:href="#linearGradient4549"
       id="linearGradient4551"
       x1="-5.1269531e-006"
       y1="0.85413331"
       x2="0.2887356"
       y2="313.103"
       gradientUnits="userSpaceOnUse" /><linearGradient
       inkscape:collect="always"
       xlink:href="#linearGradient4557"
       id="linearGradient4559"
       x1="-5.1269531e-006"
       y1="0.85413331"
       x2="0.2887356"
       y2="313.103"
       gradientUnits="userSpaceOnUse" /><linearGradient
       inkscape:collect="always"
       xlink:href="#linearGradient4565"
       id="linearGradient4567"
       x1="-5.1269531e-006"
       y1="0.85413331"
       x2="0.2887356"
       y2="313.103"
       gradientUnits="userSpaceOnUse" /><linearGradient
       inkscape:collect="always"
       xlink:href="#linearGradient4573"
       id="linearGradient4575"
       x1="-5.1269531e-006"
       y1="0.85413331"
       x2="0.2887356"
       y2="313.103"
       gradientUnits="userSpaceOnUse" /><linearGradient
       inkscape:collect="always"
       xlink:href="#linearGradient4581"
       id="linearGradient4583"
       x1="-5.1269531e-006"
       y1="0.85413331"
       x2="0.2887356"
       y2="313.103"
       gradientUnits="userSpaceOnUse" /><linearGradient
       inkscape:collect="always"
       xlink:href="#linearGradient4589"
       id="linearGradient4591"
       x1="-5.1269531e-006"
       y1="0.85413331"
       x2="0.2887356"
       y2="313.103"
       gradientUnits="userSpaceOnUse" /><linearGradient
       inkscape:collect="always"
       xlink:href="#linearGradient4523"
       id="linearGradient4595"
       gradientUnits="userSpaceOnUse"
       x1="77.800995"
       y1="264.92413"
       x2="78.089737"
       y2="577.17303" /></defs><sodipodi:namedview
     pagecolor="#ffffff"
     bordercolor="#666666"
     borderopacity="1"
     objecttolerance="10"
     gridtolerance="10"
     guidetolerance="10"
     inkscape:pageopacity="0"
     inkscape:pageshadow="2"
     inkscape:window-width="1920"
     inkscape:window-height="1020"
     id="namedview4505"
     showgrid="false"
     inkscape:zoom="2.7318385"
     inkscape:cx="134.21077"
     inkscape:cy="186.48174"
     inkscape:window-x="-5"
     inkscape:window-y="-5"
     inkscape:window-maximized="1"
     inkscape:current-layer="svg4503" /><polygon
     transform="translate(-77.801 -264.07)"
     points="407.96 287.21 463.68 334.83 446.22 356 476.22 356 496 332.02 416.5 264.07 182.39 264.07 102.99 332.02 122.77 356 152.77 356 135.3 334.82 190.94 287.21"
     id="polygon4485"
     style="fill-opacity:1;fill:url(#linearGradient4595)" /><polygon
     transform="translate(-77.801 -264.07)"
     points="199 455 299.38 576.68 399.75 455 369.75 455 299.38 540.32 229 455"
     id="polygon4487"
     style="fill-opacity:1;fill:url(#linearGradient4535)" /><path
     d="m14.199 171.82h-14.199v-61.53h14.199z"
     id="path4489"
     style="fill-opacity:1;fill:url(#linearGradient4543)" /><path
     d="m102.68 171.82h-15.312l-4.458-13.365h-23.387l-4.453 13.365h-15.034l22.829-61.53h16.703zm-22.271-23.946-7.799-21.158c-0.555-1.854-1.021-3.62-1.391-5.292h-0.278c-0.187 1.488-0.652 3.342-1.391 5.569l-6.962 20.881z"
     id="path4491"
     style="fill-opacity:1;fill:url(#linearGradient4551)" /><path
     d="m172.29 171.82h-13.363v-36.474c0-3.897 0.182-8.532 0.556-13.922h-0.275c-0.559 3.715-1.301 7.24-2.228 10.58l-11.415 39.815h-11.694l-11.416-40.929c-0.556-2.227-1.302-5.38-2.228-9.467h-0.28c0 1.115 0.093 2.693 0.28 4.734 0.182 5.57 0.279 9.56 0.279 11.973v33.688h-13.086v-61.53h20.601l10.86 40.368c0.185 1.114 0.461 3.342 0.835 6.685 0-0.558 0.089-1.298 0.278-2.227 0-2.41 0.184-3.898 0.558-4.458l10.859-40.368h20.879z"
     id="path4493"
     style="fill-opacity:1;fill:url(#linearGradient4559)" /><path
     d="m259.24 171.82h-13.924v-24.781h-26.727v24.781h-13.92v-61.53h13.92v24.778h26.727v-24.778h13.924z"
     id="path4495"
     style="fill-opacity:1;fill:url(#linearGradient4567)" /><path
     d="m315.12 171.82h-48.172v-61.53h47.334v11.413h-33.414v13.365h31.188v11.417h-31.188v14.475h34.252z"
     id="path4497"
     style="fill-opacity:1;fill:url(#linearGradient4575)" /><path
     d="m376.64 171.54h-17.541l-15.035-23.666h-8.072v23.945h-13.922v-61.53h28.119c15.037 0.373 22.832 6.498 23.389 18.375 0.182 10.209-4.826 16.336-15.035 18.374zm-28.677-50.394h-11.971v16.428h11.971c7.424 0 11.041-2.688 10.861-8.074 0.369-5.751-3.252-8.536-10.861-8.354z"
     id="path4499"
     style="fill-opacity:1;fill:url(#linearGradient4583)" /><path
     d="m440.4 141.47c-1.116 19.866-11.232 30.349-30.35 31.463-19.305-1.114-29.513-11.597-30.623-31.463 0.926-20.603 11.136-31.274 30.623-32.017 18.933 1.111 29.047 11.79 30.35 32.017zm-15.312 0c-0.377-12.807-5.479-19.49-15.312-20.047-10.023 0.557-15.313 7.24-15.873 20.047 0.369 12.623 5.568 19.212 15.594 19.77 10.022-0.369 15.214-6.96 15.591-19.77z"
     id="path4501"
     style="fill-opacity:1;fill:url(#linearGradient4591)" /></svg>